<svg width="73" height="73" viewBox="0 0 73 73" fill="none" xmlns="http://www.w3.org/2000/svg">
<path d="M43.4277 41.359C43.4277 41.359 43.4215 41.3712 43.4215 41.3773C43.0127 42.3536 42.1951 43.1956 40.9503 43.9095L39.187 44.9285C39.0527 45.0078 38.9184 45.075 38.778 45.1421C37.6492 45.6973 36.3192 45.9719 34.7755 45.9719C33.0426 45.9658 31.566 45.6119 30.3456 44.9102L11.5585 34.0614L3.73608 29.5461C2.51574 28.8444 1.90556 27.9902 1.89946 26.9895C1.89336 25.9889 2.49741 25.1407 3.70554 24.439L5.46901 23.4261C6.71986 22.7 8.19037 22.2241 9.88665 21.9983C11.5768 21.7665 13.2364 21.797 14.8595 22.1021C18.2886 22.7672 21.4736 23.6153 24.4086 24.6526C26.7638 25.4885 28.9604 26.4404 30.9984 27.5143C31.4987 27.7766 31.987 28.0451 32.469 28.3197C33.0426 28.6492 33.5978 28.9909 34.1348 29.3387C35.886 30.4675 37.4479 31.6817 38.8208 32.9753C40.6147 34.6716 42.0913 36.5082 43.2445 38.4912C43.7632 39.4248 43.8243 40.3827 43.4277 41.359Z" fill="#9D89F5" stroke="#F3F4F6" stroke-width="1.22034" stroke-linecap="round" stroke-linejoin="round"/>
<path d="M55.9786 21.9862V21.9984C55.9786 23.9875 54.7764 25.6899 52.3541 27.0811C51.6768 27.4716 50.9628 27.8072 50.2062 28.0878C48.2476 28.8201 46.0266 29.1801 43.5249 29.174C40.9988 29.1678 38.7411 28.7895 36.7642 28.039C36.032 27.7645 35.3303 27.435 34.6714 27.0506C32.2307 25.6411 31.0042 23.9387 30.9981 21.9373C30.9859 19.936 32.1941 18.2397 34.6165 16.8424C37.0389 15.439 39.986 14.7434 43.4457 14.7496C46.9114 14.7557 49.8646 15.4634 52.2992 16.8729C54.7399 18.2824 55.9664 19.9848 55.9786 21.9862Z" fill="#9D89F5" stroke="#F3F4F6" stroke-width="1.22034" stroke-linecap="round" stroke-linejoin="round"/>
<path d="M71.0559 41.1577V41.1699C71.0559 41.2675 71.0437 41.3652 71.0132 41.4567C70.9156 41.8228 70.6166 42.1462 70.1224 42.433C69.5 42.793 68.7617 42.9699 67.9196 42.9699C67.0776 42.9699 66.3332 42.7869 65.7047 42.4208L61.2689 39.8642L56.8634 42.4086C56.235 42.7686 55.5027 42.9455 54.6546 42.9455C53.8064 42.9455 53.0682 42.7625 52.4397 42.3964C51.8112 42.0364 51.4939 41.6092 51.4939 41.1211C51.4878 40.633 51.799 40.2058 52.4275 39.8458L56.8329 37.3014L55.3867 36.4655L52.3969 34.7387C51.7685 34.3787 51.4512 33.9516 51.4512 33.4635C51.4512 32.9753 51.7624 32.5482 52.3847 32.1882C53.0071 31.8282 53.7455 31.6452 54.5936 31.6513C54.8133 31.6513 55.0267 31.6635 55.2342 31.694C55.4965 31.7184 55.7407 31.7733 55.9787 31.8404C56.2716 31.9258 56.5522 32.0479 56.8085 32.1943L61.2383 34.757L65.6498 32.2126C66.2722 31.8526 67.0105 31.6696 67.8586 31.6757C68.7007 31.6757 69.439 31.8587 70.0674 32.2187C70.6959 32.5848 71.0132 33.0058 71.0132 33.5001V33.5123C71.0132 33.9943 70.702 34.4153 70.0857 34.7692L65.6742 37.3136L70.1102 39.8764C70.6105 40.1692 70.9156 40.4926 71.0132 40.8648C71.0437 40.9625 71.0559 41.0601 71.0559 41.1577Z" fill="#9D89F5" stroke="#F3F4F6" stroke-width="1.22034" stroke-linecap="round" stroke-linejoin="round"/>
<path d="M56.8329 37.3016L52.4275 39.846C51.799 40.206 51.4878 40.6331 51.4939 41.1212V45.9599C51.4634 45.8623 51.4512 45.7646 51.4512 45.667V33.4636C51.4512 33.9518 51.7685 34.3789 52.3969 34.7389L55.3867 36.4657L56.8329 37.3016Z" fill="#9D89F5" stroke="#F3F4F6" stroke-width="1.22034" stroke-linecap="round" stroke-linejoin="round"/>
<path d="M61.2689 39.8643V52.0676L56.8634 54.6121C56.235 54.9721 55.5027 55.149 54.6546 55.149C53.8064 55.149 53.0682 54.966 52.4397 54.5998C51.8112 54.2398 51.4939 53.8127 51.4939 53.3246V41.1212C51.4939 41.6093 51.8112 42.0365 52.4397 42.3965C53.0682 42.7626 53.8064 42.9456 54.6546 42.9456C55.5027 42.9456 56.235 42.7687 56.8634 42.4087L61.2689 39.8643Z" fill="#9D89F5" stroke="#F3F4F6" stroke-width="1.22034" stroke-linecap="round" stroke-linejoin="round"/>
<path d="M71.0559 41.17V53.3612C71.062 53.8493 70.7508 54.2704 70.1223 54.6365C69.4999 54.9965 68.7616 55.1734 67.9196 55.1734C67.0776 55.1734 66.3331 54.9904 65.7047 54.6243L61.2688 52.0676V39.8643L65.7047 42.4209C66.3331 42.787 67.0715 42.97 67.9196 42.97C68.7677 42.97 69.4999 42.7931 70.1223 42.4331C70.6165 42.1463 70.9155 41.8229 71.0131 41.4568C71.0437 41.3653 71.0559 41.2676 71.0559 41.17Z" fill="#9D89F5" stroke="#F3F4F6" stroke-width="1.22034" stroke-linecap="round" stroke-linejoin="round"/>
<path d="M71.0133 33.5125V40.865C70.9157 40.4928 70.6106 40.1694 70.1102 39.8765L65.6743 37.3138L70.0858 34.7694C70.7021 34.4155 71.0133 33.9945 71.0133 33.5125Z" fill="#9D89F5" stroke="#F3F4F6" stroke-width="1.22034" stroke-linecap="round" stroke-linejoin="round"/>
<path d="M55.9787 21.9985V31.8406C55.7407 31.7734 55.4965 31.7185 55.2342 31.6941C55.0267 31.6636 54.8133 31.6514 54.5936 31.6514C53.7455 31.6453 53.0071 31.8283 52.3847 32.1883C51.7624 32.5483 51.4512 32.9755 51.4512 33.4636V39.7605C49.2546 40.8283 46.6613 41.3653 43.6837 41.3775H43.4214C43.4214 41.3775 43.4275 41.3653 43.4275 41.3592C43.8241 40.3829 43.763 39.425 43.2444 38.4914C42.0912 36.5083 40.6146 34.6717 38.8207 32.9755C37.4478 31.6819 35.8858 30.4677 34.1346 29.3389C33.5977 28.9911 33.0424 28.6494 32.4689 28.3199C31.9868 28.0453 31.4986 27.7768 30.9983 27.5144V21.9375C31.0044 23.9389 32.2308 25.6412 34.6715 27.0507C35.3305 27.4351 36.0321 27.7646 36.7643 28.0392C38.7413 28.7897 40.999 29.168 43.5251 29.1741C46.0268 29.1802 48.2477 28.8202 50.2064 28.088C50.963 27.8073 51.6769 27.4717 52.3542 27.0812C54.7766 25.69 55.9787 23.9877 55.9787 21.9985Z" fill="#9D89F5" stroke="#F3F4F6" stroke-width="1.22034" stroke-linecap="round" stroke-linejoin="round"/>
<path d="M43.6838 41.3773V52.3054C43.6838 52.7203 43.5984 53.1414 43.4276 53.5624C43.0249 54.5448 42.2011 55.3929 40.9502 56.1129L39.1869 57.1319C37.9788 57.8275 36.5083 58.1753 34.7754 58.1753C33.0425 58.1692 31.5659 57.8153 30.3456 57.1136L3.73603 41.7495C2.51569 41.0478 1.90552 40.1936 1.89941 39.1929V26.9895C1.90552 27.9902 2.51569 28.8444 3.73603 29.5461L11.5584 34.0614L30.3456 44.9102C31.5659 45.6119 33.0425 45.9658 34.7754 45.9719C36.3191 45.9719 37.6492 45.6973 38.778 45.142C38.9184 45.0749 39.0527 45.0078 39.1869 44.9285L40.9502 43.9095C42.195 43.1956 43.0127 42.3536 43.4215 41.3773H43.6838Z" fill="#9D89F5" stroke="#F3F4F6" stroke-width="1.22034" stroke-linecap="round" stroke-linejoin="round"/>
<path d="M43.6836 52.6535V52.3057V52.6535Z" fill="#9D89F5"/>
<path d="M43.6836 52.6535V52.3057" stroke="#F3F4F6" stroke-width="1.22034" stroke-linecap="round" stroke-linejoin="round"/>
<path d="M43.6836 41.3774V40.3035V41.3774Z" fill="#9D89F5"/>
<path d="M43.6836 41.3774V40.3035" stroke="#F3F4F6" stroke-width="1.22034" stroke-linecap="round" stroke-linejoin="round"/>
</svg>
