<svg width="72" height="73" viewBox="0 0 72 73" fill="none" xmlns="http://www.w3.org/2000/svg">
<path d="M47.9253 37.3348L45.009 39.0168V34.9751C45.0151 35.4289 45.3055 35.8222 45.8803 36.1549L47.9253 37.3348Z" fill="#02C76A" stroke="#F3F4F6" stroke-width="1.21008" stroke-linecap="round" stroke-linejoin="round"/>
<path d="M70.203 34.4246V46.5254C70.203 46.6404 70.1788 46.7553 70.1425 46.8763C69.961 47.4511 69.3922 47.8565 68.4423 48.0925L59.8931 50.198V40.1785C59.8931 40.0878 59.881 40.003 59.8507 39.9183C59.76 39.6037 59.4878 39.3194 59.04 39.0592L58.1204 38.5328L68.4423 35.9916C69.3922 35.7557 69.961 35.3503 70.1425 34.7755C70.1788 34.6545 70.203 34.5395 70.203 34.4246Z" fill="#02C76A" stroke="#F3F4F6" stroke-width="1.21008" stroke-linecap="round" stroke-linejoin="round"/>
<path d="M37.7304 36.1426L32.2124 32.954L29.4534 31.3628L23.6874 28.029L19.6639 25.7056L17.2982 24.3382C16.1728 23.6908 14.8115 23.3641 13.2142 23.3641C11.6169 23.358 10.2615 23.6787 9.14822 24.3261L3.05547 27.8414C1.93614 28.4888 1.3795 29.2693 1.38555 30.195C1.3916 31.1147 1.95432 31.9012 3.07969 32.5486L9.48705 36.2454L23.518 44.347C24.0928 44.6858 24.7765 44.8491 25.557 44.8491C26.3375 44.8552 27.0151 44.6858 27.5899 44.353L29.2961 43.3668L33.356 41.0253L37.7425 38.4902C38.3234 38.1634 38.6077 37.7701 38.6077 37.3164C38.6017 36.8686 38.3112 36.4754 37.7304 36.1426ZM14.7872 31.1026C14.3455 31.3567 13.8373 31.4777 13.2565 31.4777C12.6756 31.4777 12.1735 31.3507 11.7318 31.0965C11.2841 30.8364 11.0663 30.5459 11.0602 30.2132C11.0602 29.8804 11.278 29.5839 11.7197 29.3298C12.1613 29.0757 12.6696 28.9486 13.2444 28.9486C13.8192 28.9486 14.3334 29.0817 14.7751 29.3359C15.2168 29.59 15.4407 29.8865 15.4407 30.2192C15.4468 30.552 15.2228 30.8485 14.7872 31.1026Z" fill="#02C76A" stroke="#F3F4F6" stroke-width="1.21008" stroke-linecap="round" stroke-linejoin="round"/>
<path d="M15.4408 30.2193C15.4469 30.5521 15.2229 30.8486 14.7873 31.1027C14.3456 31.3568 13.8374 31.4778 13.2565 31.4778C12.6757 31.4778 12.1736 31.3507 11.7319 31.0966C11.2842 30.8365 11.0664 30.546 11.0603 30.2133C11.0603 29.8805 11.2781 29.584 11.7197 29.3299C12.1614 29.0758 12.6697 28.9487 13.2445 28.9487C13.8193 28.9487 14.3335 29.0818 14.7752 29.336C15.2169 29.5901 15.4408 29.8865 15.4408 30.2193Z" fill="#02C76A" stroke="#F3F4F6" stroke-width="1.21008" stroke-linecap="round" stroke-linejoin="round"/>
<path d="M51.9247 23.2251L35.5765 13.7865C34.4511 13.1391 33.0897 12.8123 31.4924 12.8123C29.8951 12.8063 28.5398 13.127 27.4266 13.7744L21.3338 17.2897C20.2145 17.9371 19.6578 18.7176 19.6639 19.6372C19.6699 20.5629 20.2326 21.3495 21.358 21.9969L27.7654 25.6937L37.7062 31.4355C38.2871 31.7683 38.9647 31.9377 39.7452 31.9377C40.5257 31.9377 41.2034 31.7744 41.7842 31.4416L43.4904 30.4554L51.9368 25.5787C52.5116 25.246 52.796 24.8587 52.796 24.405C52.796 23.9512 52.5056 23.5639 51.9247 23.2251ZM33.0655 20.5448C32.6239 20.7989 32.1156 20.926 31.5408 20.926C30.9661 20.926 30.4518 20.7989 30.0101 20.5387C29.5624 20.2846 29.3445 19.9881 29.3385 19.6554C29.3385 19.3226 29.5563 19.0322 29.998 18.7781C30.4397 18.5239 30.9479 18.3969 31.5227 18.3969C32.0975 18.3969 32.6118 18.5239 33.0534 18.7841C33.4951 19.0382 33.719 19.3347 33.719 19.6675C33.725 20.0002 33.5012 20.2907 33.0655 20.5448Z" fill="#02C76A" stroke="#F3F4F6" stroke-width="1.21008" stroke-linecap="round" stroke-linejoin="round"/>
<path d="M33.7191 19.6676C33.7252 20.0003 33.5014 20.2908 33.0657 20.5449C32.6241 20.799 32.1158 20.926 31.541 20.926C30.9662 20.926 30.4519 20.799 30.0102 20.5388C29.5625 20.2847 29.3447 19.9882 29.3386 19.6555C29.3386 19.3227 29.5565 19.0323 29.9982 18.7781C30.4399 18.524 30.948 18.397 31.5228 18.397C32.0976 18.397 32.6119 18.524 33.0536 18.7842C33.4953 19.0383 33.7191 19.3348 33.7191 19.6676Z" fill="#02C76A" stroke="#F3F4F6" stroke-width="1.21008" stroke-linecap="round" stroke-linejoin="round"/>
<path d="M70.2031 34.4243C70.2031 34.5393 70.1789 34.6542 70.1426 34.7752C69.9611 35.35 69.3924 35.7554 68.4425 35.9914L58.1205 38.5326L59.0402 39.0589C59.4879 39.3191 59.7602 39.6035 59.8509 39.9181C59.8812 40.0028 59.8933 40.0875 59.8933 40.1783C59.8933 40.3114 59.863 40.4505 59.8086 40.5897C59.5787 41.1766 58.9676 41.582 57.9813 41.7937L48.7243 44.2502L45.0092 45.2364L38.6079 46.9426L36.46 47.5114L32.2489 48.6307C31.8738 48.7275 31.535 48.7336 31.2324 48.6549C30.9239 48.5763 30.7 48.4613 30.5669 48.304C30.4277 48.1467 30.3551 47.9712 30.337 47.7897C30.3188 47.6021 30.4398 47.4267 30.7121 47.2754L33.3864 45.7326L37.4462 43.385L38.6079 42.7134L45.0092 39.0166L47.9256 37.3346L45.8805 36.1547C45.3057 35.822 45.0153 35.4287 45.0092 34.9749C45.0092 34.5272 45.2936 34.1339 45.8684 33.8011L47.5746 32.8149L52.7961 29.8018L56.0271 27.9383C56.6019 27.6055 57.2795 27.4421 58.06 27.4421C58.8405 27.4421 59.5182 27.6116 60.099 27.9443L69.344 33.2868C69.9127 33.6136 70.2031 33.9947 70.2031 34.4243Z" fill="#02C76A" stroke="#F3F4F6" stroke-width="1.21008" stroke-linecap="round" stroke-linejoin="round"/>
<path d="M70.2031 46.6101V46.5254V46.6101Z" fill="#02C76A"/>
<path d="M70.2031 46.6101V46.5254" stroke="#F3F4F6" stroke-width="1.21008" stroke-linecap="round" stroke-linejoin="round"/>
<path d="M70.2031 34.4244V34.2974V34.4244Z" fill="#02C76A"/>
<path d="M70.2031 34.4244V34.2974" stroke="#F3F4F6" stroke-width="1.21008" stroke-linecap="round" stroke-linejoin="round"/>
<path d="M59.8933 52.3701V52.2793V52.3701Z" fill="#02C76A"/>
<path d="M59.8933 52.3701V52.2793" stroke="#F3F4F6" stroke-width="1.21008" stroke-linecap="round" stroke-linejoin="round"/>
<path d="M59.8933 40.1784V40.0029V40.1784Z" fill="#02C76A"/>
<path d="M59.8933 40.1784V40.0029" stroke="#F3F4F6" stroke-width="1.21008" stroke-linecap="round" stroke-linejoin="round"/>
<path d="M59.8932 40.1785V52.2793C59.8932 52.4124 59.863 52.5516 59.8085 52.6907C59.5786 53.2776 58.9675 53.683 57.9813 53.8948L32.2488 60.7317C31.8737 60.8286 31.5349 60.8346 31.2324 60.7559C30.9238 60.6773 30.6999 60.5623 30.5668 60.405C30.4277 60.2477 30.3551 60.0723 30.3369 59.8907V47.7899C30.3551 47.9714 30.4277 48.1469 30.5668 48.3042C30.6999 48.4615 30.9238 48.5764 31.2324 48.6551C31.5349 48.7338 31.8737 48.7277 32.2488 48.6309L36.4599 47.5116L38.6078 46.9428L45.0092 45.2366L48.7242 44.2504L57.9813 41.7939C58.9675 41.5822 59.5786 41.1768 59.8085 40.5899C59.863 40.4507 59.8932 40.3116 59.8932 40.1785Z" fill="#02C76A" stroke="#F3F4F6" stroke-width="1.21008" stroke-linecap="round" stroke-linejoin="round"/>
<path d="M38.6077 37.3167V42.7136L37.446 43.3852L33.3862 45.7328L30.7119 47.2757C30.4397 47.4269 30.3186 47.6024 30.3368 47.7899V54.8689L27.5898 56.4541C27.0151 56.7869 26.3375 56.9563 25.557 56.9503C24.7765 56.9503 24.0928 56.7869 23.518 56.4481L3.07965 44.6498C1.95427 44.0024 1.39155 43.2158 1.3855 42.2962V30.1953C1.39155 31.115 1.95427 31.9015 3.07965 32.5489L9.48705 36.2457L23.518 44.3472C24.0928 44.6861 24.7765 44.8494 25.557 44.8494C26.3375 44.8555 27.0151 44.6861 27.5898 44.3533L29.2961 43.3671L33.356 41.0256L37.7425 38.4904C38.3234 38.1637 38.6077 37.7704 38.6077 37.3167Z" fill="#02C76A" stroke="#F3F4F6" stroke-width="1.21008" stroke-linecap="round" stroke-linejoin="round"/>
<path d="M52.7959 24.4049V29.8019L47.5744 32.815L45.8682 33.8012C45.2934 34.134 45.009 34.5273 45.009 34.975V39.0167L38.6077 42.7135V37.3165C38.6016 36.8688 38.3112 36.4755 37.7304 36.1428L32.2124 32.9542L29.4534 31.3629L23.6873 28.0291L19.6638 25.7058V19.6372C19.6699 20.5629 20.2326 21.3495 21.3579 21.9969L27.7653 25.6937L37.7062 31.4355C38.287 31.7683 38.9647 31.9377 39.7452 31.9377C40.5257 31.9377 41.2033 31.7744 41.7842 31.4416L43.4904 30.4554L51.9368 25.5787C52.5115 25.2459 52.7959 24.8587 52.7959 24.4049Z" fill="#02C76A" stroke="#F3F4F6" stroke-width="1.21008" stroke-linecap="round" stroke-linejoin="round"/>
</svg>
