<svg width="43" height="71" viewBox="0 0 43 71" fill="none" xmlns="http://www.w3.org/2000/svg">
<path d="M10.3202 60.3825L10.3201 60.3826L10.3287 60.3868C13.4344 61.915 17.0648 62.6702 21.2055 62.6702C25.3903 62.6702 28.9978 61.9404 32.0102 60.4589L32.0131 60.4574C35.0612 58.9334 37.4142 56.8588 39.0521 54.2294C40.738 51.6003 41.5775 48.6263 41.5775 45.3222V44.4582C41.5775 41.1553 40.7384 38.2485 39.0462 35.7577C37.4054 33.2241 35.0731 31.2702 32.0701 29.8918C30.1954 29.0313 28.0993 28.4427 25.7855 28.1212L39.1856 19.6082L39.4175 19.4609V19.1862V8.24219V7.74219H38.9175H3.4935H2.9935V8.24219V18.3222V18.8222H3.4935H24.2885L24.5819 19.3766L9.05254 29.4953L8.65124 29.7567L8.89524 30.1689L14.2232 39.1689L14.5187 39.668L14.9688 39.3022C15.6925 38.7142 16.5594 38.2103 17.5752 37.7944C18.6094 37.3904 19.8164 37.1822 21.2055 37.1822C23.8004 37.1822 25.7182 37.8979 27.0382 39.2619L27.0381 39.2619L27.0439 39.2677C28.4288 40.6526 29.1295 42.417 29.1295 44.6022C29.1295 46.0103 28.8128 47.2677 28.1874 48.3861C27.5648 49.4517 26.6753 50.2995 25.5044 50.93C24.3455 51.554 22.9193 51.8782 21.2055 51.8782C18.6005 51.8782 16.6483 51.2283 15.2798 49.994C13.9041 48.7055 13.2095 47.0431 13.2095 44.9622V44.4622H12.7095H1.3335H0.833496V44.9622C0.833496 48.3111 1.6473 51.3305 3.28286 54.0069C4.91939 56.6849 7.27143 58.809 10.3202 60.3825Z" stroke="#D1D5DB"/>
</svg>
