<svg width="41" height="71" viewBox="0 0 41 71" fill="none" xmlns="http://www.w3.org/2000/svg">
<path d="M1.88675 62.3862V62.8862H2.38675H39.8988H40.3988V62.3862V52.2342V51.7342H39.8988H14.4067V51.0102C14.4067 49.9457 14.6706 49.1636 15.144 48.6071C15.6998 48.0119 16.656 47.3998 18.0656 46.789L18.0665 46.7885L26.4905 43.1165L26.4912 43.1163C31.1381 41.0832 34.6204 38.741 36.8954 36.0704L36.8983 36.067C39.1941 33.322 40.3268 29.8663 40.3268 25.7382V24.8742C40.3268 21.6722 39.5624 18.7756 38.0261 16.1973C36.534 13.6124 34.3252 11.5587 31.4209 10.0324C28.5451 8.49571 24.9787 7.74219 20.7467 7.74219C16.5114 7.74219 12.9201 8.52094 9.99637 10.1067C7.08417 11.6862 4.87568 13.8661 3.38689 16.6444C1.90348 19.3647 1.16675 22.4239 1.16675 25.8102V26.3102H1.66675H13.1147H13.6147V25.8102C13.6147 23.5532 14.2341 21.8137 15.4247 20.5349C16.599 19.2736 18.344 18.6062 20.7467 18.6062C23.1545 18.6062 24.9016 19.2526 26.0748 20.4693C27.269 21.7076 27.8787 23.3052 27.8787 25.3062C27.8787 27.2822 27.3749 28.8706 26.4016 30.1093L26.4015 30.1092L26.3948 30.1182C25.4568 31.3688 23.9575 32.451 21.8483 33.3416L21.8483 33.3415L21.8444 33.3432L13.3498 37.0146C13.3494 37.0148 13.3491 37.0149 13.3488 37.0151C10.6349 38.1782 8.43132 39.4474 6.75238 40.8294C5.06835 42.1674 3.81624 43.7151 3.01201 45.4743L3.01188 45.4743L3.00718 45.4852C2.25504 47.2402 1.88675 49.2779 1.88675 51.5862V62.3862Z" stroke="#D1D5DB"/>
</svg>
