<svg width="73" height="73" viewBox="0 0 73 73" fill="none" xmlns="http://www.w3.org/2000/svg">
<g clip-path="url(#clip0_1294_26442)">
<path d="M51.0686 27.7724V27.9959C51.0624 27.9835 51.0376 27.9835 51.0376 27.9835C51.0562 27.9152 51.0624 27.8469 51.0686 27.7724ZM51.0686 27.7724V27.071C51.0935 27.3131 51.0935 27.5428 51.0686 27.7724Z" fill="#FFA500"/>
<path d="M51.0686 27.7724V27.9959C51.0624 27.9835 51.0376 27.9835 51.0376 27.9835C51.0562 27.9152 51.0624 27.8469 51.0686 27.7724ZM51.0686 27.7724V27.071C51.0935 27.3131 51.0935 27.5428 51.0686 27.7724Z" stroke="#F3F4F6" stroke-width="1.24138" stroke-linecap="round" stroke-linejoin="round"/>
<path d="M68.2184 22.422C66.4929 19.9641 63.9357 17.7544 60.5529 15.7992C57.164 13.8441 53.3405 12.3668 49.0826 11.3737C44.7936 10.3868 40.486 9.90269 36.0853 9.89648C31.6846 9.88407 27.3336 10.3558 23.0819 11.3365C18.8302 12.2923 15.0191 13.751 11.6302 15.7123C8.26603 17.6551 5.73361 19.8523 4.06395 22.3227C2.38809 24.762 1.56878 27.2696 1.58119 29.8144C1.59361 31.8875 2.15845 33.9296 3.30052 35.9654C3.555 36.4185 3.8343 36.8654 4.14464 37.3185C5.0074 38.5475 6.06258 39.7144 7.33499 40.8254H7.3412C8.61361 41.9303 10.0909 42.973 11.7853 43.9537C14.4605 45.4992 17.4212 46.7344 20.6488 47.6654C21.2446 47.8516 21.8529 48.013 22.4674 48.162C22.7343 48.2365 23.0074 48.3047 23.2805 48.3668C23.5474 48.4289 23.8205 48.491 24.0874 48.5406C24.9067 48.7206 25.726 48.882 26.5453 49.0185C29.7667 49.571 33.0129 49.8503 36.3026 49.8565C37.0474 49.8565 37.786 49.8441 38.5246 49.813C42.1619 49.6889 45.7433 49.2172 49.2564 48.4165C53.5329 47.4482 57.3377 45.9834 60.7081 44.0406C62.3529 43.091 63.7929 42.0854 65.0343 41.0179C66.3502 39.8882 67.4302 38.6965 68.2743 37.4303C68.5598 37.0144 68.8205 36.6047 69.0626 36.1889C70.2233 34.153 70.8067 32.0923 70.8067 29.9944V29.9385C70.7881 27.3999 69.9191 24.8985 68.2184 22.422ZM65.0343 31.3599C64.8046 32.9923 64.1343 34.5999 63.0543 36.1827C63.0481 36.1889 63.0419 36.2013 63.0357 36.2075C61.6515 38.2558 59.535 40.0992 56.7046 41.7316C53.8991 43.3516 50.7026 44.5744 47.1398 45.3875C45.2964 45.8096 43.4405 46.1199 41.5784 46.3185H41.566C39.884 46.4985 38.1895 46.5854 36.4702 46.5854H36.284C33.0502 46.5854 29.8598 46.2565 26.7005 45.6358C26.6509 45.6234 26.6012 45.611 26.5453 45.5985C26.1543 45.5241 25.7571 45.4372 25.366 45.3503C24.9378 45.2447 24.5095 45.1392 24.0874 45.0275C23.1812 44.7792 22.2936 44.5123 21.4371 44.2144C21.4309 44.2144 21.4309 44.2082 21.4309 44.2082C21.164 44.1213 20.9095 44.0282 20.6488 43.9289C18.9109 43.2896 17.2722 42.5323 15.7578 41.6572C12.9398 40.031 10.8233 38.1627 9.37085 36.1144C9.33982 36.071 9.31499 36.0275 9.28396 35.9841C8.21637 34.3765 7.55844 32.7627 7.3412 31.1303C7.27913 30.6958 7.2543 30.2613 7.2543 29.8268C7.22327 27.6916 7.89361 25.5999 9.30258 23.5454C10.7115 21.4847 12.8281 19.6413 15.6336 18.0213C18.4578 16.3889 21.6605 15.1661 25.1984 14.3654C28.7674 13.5523 32.4109 13.1489 36.104 13.1675C39.7971 13.1613 43.3909 13.5772 46.9722 14.4027C50.5474 15.2282 53.7564 16.4634 56.5805 18.0958C59.3984 19.722 61.5398 21.5779 62.9674 23.6385C64.395 25.7054 65.1398 27.7972 65.1274 29.9261C65.1336 30.4041 65.1088 30.882 65.0343 31.3599Z" fill="#FFA500" stroke="#F3F4F6" stroke-width="1.24138" stroke-linecap="round" stroke-linejoin="round"/>
<path d="M45.6252 28.8585V38.4047C45.3397 38.1254 44.9673 37.8523 44.5017 37.5854C43.5024 37.0082 42.5466 36.642 41.5721 36.5116V33.6316C41.5721 33.5509 41.5659 33.464 41.5535 33.3834C41.4542 32.4151 40.8273 31.2482 39.6853 29.8765C38.4066 28.3496 37.5935 27.2323 37.3452 26.5247C37.2086 26.1896 37.2025 25.873 37.3142 25.5875C37.4446 25.2585 37.7424 24.9668 38.1893 24.7061C39.0645 24.1972 40.0453 24.0047 41.119 24.0606C42.2487 24.1165 43.3473 24.5013 44.5017 25.1716C45.3335 25.6496 45.8797 26.1399 46.1155 26.6303C46.1838 26.7606 46.2273 26.8909 46.2521 27.0213C46.3266 27.6544 46.1342 28.2813 45.6252 28.8585Z" fill="#FFA500" stroke="#F3F4F6" stroke-width="1.24138" stroke-linecap="round" stroke-linejoin="round"/>
<path d="M51.6831 22.9497V35.3635L51.0686 35.7173V27.7725C51.0935 27.5428 51.0935 27.3132 51.0686 27.0711C50.9383 26.0159 50.3238 25.1221 49.219 24.3711L49.8893 23.9863L51.6831 22.9497Z" fill="#FFA500" stroke="#F3F4F6" stroke-width="1.24138" stroke-linecap="round" stroke-linejoin="round"/>
<path d="M50.0569 42.365V29.9512C50.5969 29.3367 50.9321 28.685 51.0376 27.9836C51.05 27.9836 51.0624 27.9837 51.0686 27.9961V39.485C51.1741 40.534 50.8327 41.4898 50.0569 42.365Z" fill="#FFA500" stroke="#F3F4F6" stroke-width="1.24138" stroke-linecap="round" stroke-linejoin="round"/>
<path d="M50.057 29.9511V42.3649L45.6252 41.2724V28.8586L50.057 29.9511Z" fill="#FFA500" stroke="#F3F4F6" stroke-width="1.24138" stroke-linecap="round" stroke-linejoin="round"/>
<path d="M26.5453 37.3557V45.5985C26.1543 45.524 25.7571 45.437 25.366 45.3501C24.9377 45.2446 24.5095 45.1392 24.0874 45.0274V38.777L26.5453 37.3557Z" fill="#FFA500" stroke="#F3F4F6" stroke-width="1.24138" stroke-linecap="round" stroke-linejoin="round"/>
<path d="M65.1272 29.9262C65.1334 30.4041 65.1086 30.8821 65.0341 31.36C64.8045 32.9924 64.1341 34.6 63.0541 36.1827C63.0293 36.1393 62.9983 36.0959 62.9672 36.0524C61.5397 33.9917 59.3983 32.1359 56.5804 30.5096C55.0597 29.6283 53.4273 28.8648 51.6894 28.2255V22.9559L48.2508 20.9759L45.7928 22.3972C43.8066 21.6462 41.7708 21.3172 39.7659 21.4227C38.1335 21.491 36.7308 21.7828 35.5328 22.3165C35.2597 22.4345 34.9928 22.5649 34.7383 22.7138C33.2239 23.589 32.448 24.5759 32.3797 25.6621V25.7117C29.959 25.8855 27.5632 26.2393 25.1983 26.7793C21.6604 27.58 18.4577 28.8027 15.6335 30.4352C12.828 32.0552 10.7114 33.8986 9.30248 35.9593C9.29627 35.9655 9.29007 35.9779 9.28386 35.9841C8.21627 34.3765 7.55828 32.7628 7.34104 31.1303C7.27897 30.6959 7.2542 30.2614 7.2542 29.8269C7.22317 27.6917 7.89351 25.6 9.30248 23.5455C10.7114 21.4848 12.828 19.6414 15.6335 18.0214C18.4577 16.389 21.6604 15.1662 25.1983 14.3655C28.7673 13.5524 32.4108 13.149 36.1039 13.1676C39.797 13.1614 43.3908 13.5773 46.9721 14.4028C50.5473 15.2283 53.7563 16.4634 56.5804 18.0959C59.3983 19.7221 61.5397 21.5779 62.9672 23.6386C64.3948 25.7055 65.1397 27.7972 65.1272 29.9262Z" fill="#FFA500" stroke="#F3F4F6" stroke-width="1.24138" stroke-linecap="round" stroke-linejoin="round"/>
<path d="M51.0688 27.0711V27.7725C51.0626 27.847 51.0564 27.9152 51.0378 27.9835C50.9322 28.6849 50.5971 29.3366 50.0571 29.9511L45.6253 28.8587C46.1343 28.2814 46.3267 27.6546 46.2522 27.0215C46.2274 26.8911 46.184 26.7608 46.1157 26.6304C45.8798 26.1401 45.3336 25.6497 44.5019 25.1718C43.3474 24.5015 42.2488 24.1166 41.1191 24.0608C40.0453 24.0049 39.0646 24.1973 38.1895 24.7063C37.7426 24.967 37.4446 25.2587 37.3143 25.5877C37.2026 25.8732 37.2088 26.1897 37.3453 26.5249C37.5936 27.2325 38.4067 28.3497 39.6853 29.8766C40.8274 31.2483 41.4543 32.4152 41.5536 33.3835C41.566 33.4642 41.5722 33.5511 41.5722 33.6318V33.6628C41.5722 33.7311 41.5722 33.7932 41.566 33.8552C41.566 33.8863 41.5598 33.9235 41.5536 33.9546C41.5412 34.0849 41.5102 34.2152 41.4729 34.3394C41.206 35.1525 40.666 35.8849 39.8653 36.5304H39.8591C39.5612 36.7725 39.2322 36.9959 38.866 37.207C38.3633 37.4925 37.8605 37.7408 37.3391 37.9394C35.8681 38.5352 34.3288 38.7897 32.7398 38.7028C32.6343 38.6966 32.535 38.6904 32.4295 38.678C30.7536 38.5601 29.1336 38.2497 27.6005 37.7346C27.2405 37.6228 26.8867 37.4925 26.5391 37.3497L24.0812 38.7711L21.4246 37.2442L20.6426 36.7911L21.4246 36.338L23.206 35.3139C22.0453 34.2277 21.4246 33.1228 21.4246 32.0242V31.9746C21.4184 30.8449 21.9274 29.7028 23.0695 28.5359L27.6005 29.6842C26.6509 30.6835 26.266 31.6146 26.4646 32.4959C26.5453 33.1601 26.9426 33.7435 27.6005 34.2525C27.8115 34.4263 28.0536 34.5877 28.3143 34.7428C29.3943 35.3635 30.5674 35.7608 31.8646 35.9221C32.0384 35.9408 32.206 35.9532 32.3736 35.9594C32.8143 35.978 33.2364 35.9532 33.646 35.8725H33.6522C34.2605 35.7546 34.8377 35.5373 35.4088 35.2083C35.8246 34.9663 36.1288 34.6994 36.3274 34.4139C36.5819 34.0415 36.6502 33.6256 36.526 33.1725C36.2964 32.3718 35.5081 31.1552 34.2046 29.529C32.9695 28.0394 32.3736 26.7546 32.3736 25.7056V25.6559C32.4419 24.5697 33.2177 23.5828 34.7322 22.7077C34.9867 22.5587 35.2536 22.4283 35.5267 22.3104C36.7246 21.7766 38.1274 21.4849 39.7598 21.4166C41.7646 21.3111 43.8005 21.6401 45.7867 22.3911L48.2446 20.9697L51.6833 22.9497L49.8895 23.9863L49.2191 24.3711C50.324 25.1221 50.9384 26.0159 51.0688 27.0711Z" fill="#FFA500" stroke="#F3F4F6" stroke-width="1.24138" stroke-linecap="round" stroke-linejoin="round"/>
<path d="M51.0686 27.7724V27.071C51.0934 27.3131 51.0934 27.5428 51.0686 27.7724Z" fill="#FFA500" stroke="#F3F4F6" stroke-width="1.24138" stroke-linecap="round" stroke-linejoin="round"/>
<path d="M24.0873 38.7774V45.0277C23.1811 44.7794 22.2935 44.5125 21.437 44.2146C21.4308 44.2146 21.4308 44.2084 21.4308 44.2084C21.1639 44.1215 20.9094 44.0284 20.6487 43.9291V36.7974L21.4308 37.2505L24.0873 38.7774Z" fill="#FFA500" stroke="#F3F4F6" stroke-width="1.24138" stroke-linecap="round" stroke-linejoin="round"/>
<path d="M36.3273 34.4136C36.1287 34.6991 35.8246 34.966 35.4087 35.2081C34.8377 35.537 34.2604 35.7543 33.6522 35.866H33.646C33.2363 35.9529 32.8142 35.9777 32.3735 35.9591V25.7053C32.3735 26.7543 32.9694 28.0391 34.2046 29.5288C35.508 31.155 36.2963 32.3715 36.526 33.1722C36.6501 33.6253 36.5818 34.0412 36.3273 34.4136Z" fill="#FFA500" stroke="#F3F4F6" stroke-width="1.24138" stroke-linecap="round" stroke-linejoin="round"/>
<path d="M27.6002 29.6841V34.2524C26.9423 33.7434 26.5451 33.1599 26.4644 32.4958C26.2658 31.6144 26.6506 30.6834 27.6002 29.6841Z" fill="#FFA500" stroke="#F3F4F6" stroke-width="1.24138" stroke-linecap="round" stroke-linejoin="round"/>
<path d="M23.2059 35.3138L21.4246 36.338V32.0242C21.4246 33.1228 22.0452 34.2276 23.2059 35.3138Z" fill="#FFA500" stroke="#F3F4F6" stroke-width="1.24138" stroke-linecap="round" stroke-linejoin="round"/>
<path d="M70.8066 29.9945V42.3524C70.819 44.8972 69.9748 47.3924 68.2741 49.8441C66.6293 52.302 64.0969 54.4993 60.7079 56.4545C57.3376 58.3972 53.5328 59.862 49.2562 60.8303C45.0293 61.7924 40.7031 62.2827 36.3024 62.2703C31.8955 62.264 27.5693 61.7613 23.2804 60.7807C19.0224 59.7813 15.1742 58.3227 11.7852 56.3676C8.40243 54.4124 5.87002 52.1903 4.1445 49.7324C2.44381 47.2558 1.59347 44.7669 1.58105 42.2282V29.8145C1.59347 31.8876 2.15831 33.9296 3.30038 35.9655C3.55486 36.4186 3.83416 36.8655 4.1445 37.3186C5.00726 38.5476 6.06245 39.7145 7.33484 40.8255H7.34105C8.61346 41.9303 10.0907 42.9731 11.7852 43.9538C14.4604 45.4993 17.421 46.7345 20.6486 47.6655C21.2445 47.8517 21.8528 48.0131 22.4673 48.162C22.7342 48.2365 23.0073 48.3048 23.2804 48.3669C23.5473 48.4289 23.8204 48.491 24.0873 48.5407C24.9066 48.7207 25.7259 48.882 26.5452 49.0186C29.7666 49.571 33.0128 49.8503 36.3024 49.8565C37.0473 49.8565 37.7859 49.8441 38.5245 49.8131C42.1617 49.6889 45.7431 49.2172 49.2562 48.4165C53.5328 47.4482 57.3376 45.9834 60.7079 44.0407C62.3528 43.091 63.7928 42.0855 65.0341 41.0179C66.35 39.8882 67.43 38.6965 68.2741 37.4303C68.5597 37.0145 68.8204 36.6048 69.0624 36.1889C70.2231 34.1531 70.8066 32.0924 70.8066 29.9945Z" fill="#FFA500" stroke="#F3F4F6" stroke-width="1.24138" stroke-linecap="round" stroke-linejoin="round"/>
<path d="M41.5783 33.6689V46.3186H41.5659C39.8838 46.4986 38.1893 46.5855 36.47 46.5855H36.2838C33.05 46.5855 29.8596 46.2565 26.7003 45.6358C26.6507 45.6234 26.601 45.611 26.5452 45.5986V37.3558C26.8928 37.4986 27.2465 37.6289 27.6065 37.7407C29.1396 38.2558 30.7596 38.5662 32.4355 38.6841C32.541 38.6965 32.6403 38.7027 32.7459 38.7089C34.3348 38.7958 35.8741 38.5414 37.3452 37.9455C37.8665 37.7469 38.3693 37.4986 38.8721 37.2131C39.2383 37.002 39.5672 36.7786 39.8652 36.5365H39.8714C40.6721 35.891 41.2121 35.1586 41.479 34.3455C41.5162 34.2214 41.5472 34.091 41.5596 33.9607C41.5659 33.9296 41.5721 33.8924 41.5721 33.8614C41.5783 33.7993 41.5783 33.7372 41.5783 33.6689Z" fill="#FFA500" stroke="#F3F4F6" stroke-width="1.24138" stroke-linecap="round" stroke-linejoin="round"/>
</g>
<defs>
<clipPath id="clip0_1294_26442">
<rect width="72" height="72" fill="white" transform="translate(0.333496 0.170166)"/>
</clipPath>
</defs>
</svg>
